<svg xmlns="http://www.w3.org/2000/svg" width="840" height="336" font-family="system-ui,-apple-system,&quot;Segoe UI&quot;,Roboto,&quot;Helvetica Neue&quot;,&quot;Noto Sans&quot;,&quot;Liberation Sans&quot;,Arial,sans-serif" font-size="16"><g font-weight="500" text-anchor="end"><text x="156" y="68" alignment-baseline="central" dx="-10">markdown-wasm</text><text x="156" y="104" alignment-baseline="central" dx="-10">remarkable</text><text x="156" y="140" alignment-baseline="central" dx="-10">commonmark</text><text x="156" y="176" alignment-baseline="central" dx="-10">markdown-it</text><text x="156" y="212" alignment-baseline="central" dx="-10">marked</text><text x="156" y="248" alignment-baseline="central" dx="-10">showdown</text><text x="156" y="284" alignment-baseline="central" dx="-10">micromark</text></g><path fill="#4e79a7" d="M156 52h668v32H156z"/><path fill="#f28e2c" d="M156 88h338.674v32H156z"/><path fill="#76b7b2" d="M156 124h263.251v32H156z"/><path fill="#e15759" d="M156 160h223.282v32H156z"/><path fill="#59a14f" d="M156 196h163.927v32H156z"/><path fill="#edc949" d="M156 232h31.165v32H156z"/><path fill="#af7aa1" d="M156 268h12.348v32H156z"/><g fill="#fff" font-weight="500" text-anchor="end"><text x="824" y="68" alignment-baseline="central" dx="-5">108MB/s</text><text x="494.674" y="104" alignment-baseline="central" dx="-5">55MB/s</text><text x="419.251" y="140" alignment-baseline="central" dx="-5">43MB/s</text><text x="379.282" y="176" alignment-baseline="central" dx="-5">36MB/s</text><text x="319.927" y="212" alignment-baseline="central" dx="-5">27MB/s</text><text x="187.165" y="248" fill="#000" alignment-baseline="central" dx="5" text-anchor="start">5MB/s</text><text x="168.348" y="284" fill="#000" alignment-baseline="central" dx="5" text-anchor="start">2MB/s</text></g><g fill="none" font-size="12.8" opacity=".5" text-anchor="middle"><g class="tick" opacity="1"><path stroke="currentColor" d="M156.5 48v-6"/><text y="-9" fill="currentColor" dy="0em" transform="translate(156.5 48)">0</text></g><g class="tick" opacity="1"><path stroke="currentColor" d="M187.297 48v-6"/><text y="-9" fill="currentColor" dy="0em" transform="translate(187.297 48)">5</text></g><g class="tick" opacity="1"><path stroke="currentColor" d="M218.094 48v-6"/><text y="-9" fill="currentColor" dy="0em" transform="translate(218.094 48)">10</text></g><g class="tick" opacity="1"><path stroke="currentColor" d="M248.892 48v-6"/><text y="-9" fill="currentColor" dy="0em" transform="translate(248.892 48)">15</text></g><g class="tick" opacity="1"><path stroke="currentColor" d="M279.689 48v-6"/><text y="-9" fill="currentColor" dy="0em" transform="translate(279.689 48)">20</text></g><g class="tick" opacity="1"><path stroke="currentColor" d="M310.486 48v-6"/><text y="-9" fill="currentColor" dy="0em" transform="translate(310.486 48)">25</text></g><g class="tick" opacity="1"><path stroke="currentColor" d="M341.283 48v-6"/><text y="-9" fill="currentColor" dy="0em" transform="translate(341.283 48)">30</text></g><g class="tick" opacity="1"><path stroke="currentColor" d="M372.08 48v-6"/><text y="-9" fill="currentColor" dy="0em" transform="translate(372.08 48)">35</text></g><g class="tick" opacity="1"><path stroke="currentColor" d="M402.878 48v-6"/><text y="-9" fill="currentColor" dy="0em" transform="translate(402.878 48)">40</text></g><g class="tick" opacity="1"><path stroke="currentColor" d="M433.675 48v-6"/><text y="-9" fill="currentColor" dy="0em" transform="translate(433.675 48)">45</text></g><g class="tick" opacity="1"><path stroke="currentColor" d="M464.472 48v-6"/><text y="-9" fill="currentColor" dy="0em" transform="translate(464.472 48)">50</text></g><g class="tick" opacity="1"><path stroke="currentColor" d="M495.27 48v-6"/><text y="-9" fill="currentColor" dy="0em" transform="translate(495.27 48)">55</text></g><g class="tick" opacity="1"><path stroke="currentColor" d="M526.067 48v-6"/><text y="-9" fill="currentColor" dy="0em" transform="translate(526.067 48)">60</text></g><g class="tick" opacity="1"><path stroke="currentColor" d="M556.864 48v-6"/><text y="-9" fill="currentColor" dy="0em" transform="translate(556.864 48)">65</text></g><g class="tick" opacity="1"><path stroke="currentColor" d="M587.661 48v-6"/><text y="-9" fill="currentColor" dy="0em" transform="translate(587.661 48)">70</text></g><g class="tick" opacity="1"><path stroke="currentColor" d="M618.459 48v-6"/><text y="-9" fill="currentColor" dy="0em" transform="translate(618.459 48)">75</text></g><g class="tick" opacity="1"><path stroke="currentColor" d="M649.256 48v-6"/><text y="-9" fill="currentColor" dy="0em" transform="translate(649.256 48)">80</text></g><g class="tick" opacity="1"><path stroke="currentColor" d="M680.053 48v-6"/><text y="-9" fill="currentColor" dy="0em" transform="translate(680.053 48)">85</text></g><g class="tick" opacity="1"><path stroke="currentColor" d="M710.85 48v-6"/><text y="-9" fill="currentColor" dy="0em" transform="translate(710.85 48)">90</text></g><g class="tick" opacity="1"><path stroke="currentColor" d="M741.648 48v-6"/><text y="-9" fill="currentColor" dy="0em" transform="translate(741.648 48)">95</text></g><g class="tick" opacity="1"><path stroke="currentColor" d="M772.445 48v-6"/><text y="-9" fill="currentColor" dy="0em" transform="translate(772.445 48)">100</text></g><g class="tick" opacity="1"><path stroke="currentColor" d="M803.242 48v-6"/><text y="-9" fill="currentColor" dy="0em" transform="translate(803.242 48)">105</text></g></g></svg>