<svg xmlns="http://www.w3.org/2000/svg" width="840" height="336" font-family="system-ui,-apple-system,&quot;Segoe UI&quot;,Roboto,&quot;Helvetica Neue&quot;,&quot;Noto Sans&quot;,&quot;Liberation Sans&quot;,Arial,sans-serif" font-size="16"><g font-weight="500" text-anchor="end"><text x="156" y="68" alignment-baseline="central" dx="-10">markdown-wasm</text><text x="156" y="104" alignment-baseline="central" dx="-10">remarkable</text><text x="156" y="140" alignment-baseline="central" dx="-10">markdown-it</text><text x="156" y="176" alignment-baseline="central" dx="-10">commonmark</text><text x="156" y="212" alignment-baseline="central" dx="-10">marked</text><text x="156" y="248" alignment-baseline="central" dx="-10">showdown</text><text x="156" y="284" alignment-baseline="central" dx="-10">micromark</text></g><path fill="#4e79a7" d="M156 52h668v32H156z"/><path fill="#f28e2c" d="M156 88h612.738v32H156z"/><path fill="#e15759" d="M156 124h352.393v32H156z"/><path fill="#76b7b2" d="M156 160h308.946v32H156z"/><path fill="#59a14f" d="M156 196h306.176v32H156z"/><path fill="#edc949" d="M156 232h39.084v32H156z"/><path fill="#af7aa1" d="M156 268h16.142v32H156z"/><g fill="#fff" font-weight="500" text-anchor="end"><text x="824" y="68" alignment-baseline="central" dx="-5">313,185</text><text x="768.738" y="104" alignment-baseline="central" dx="-5">287,276</text><text x="508.393" y="140" alignment-baseline="central" dx="-5">165,216</text><text x="464.946" y="176" alignment-baseline="central" dx="-5">144,846</text><text x="462.176" y="212" alignment-baseline="central" dx="-5">143,548</text><text x="195.084" y="248" fill="#000" alignment-baseline="central" dx="5" text-anchor="start">18,324</text><text x="172.142" y="284" fill="#000" alignment-baseline="central" dx="5" text-anchor="start">7,568</text></g><g fill="none" font-size="12.8" opacity=".5" text-anchor="middle"><g class="tick" opacity="1"><path stroke="currentColor" d="M156.5 48v-6"/><text y="-9" fill="currentColor" dy="0em" transform="translate(156.5 48)">0</text></g><g class="tick" opacity="1"><path stroke="currentColor" d="M263.146 48v-6"/><text y="-9" fill="currentColor" dy="0em" transform="translate(263.146 48)">50,000</text></g><g class="tick" opacity="1"><path stroke="currentColor" d="M369.792 48v-6"/><text y="-9" fill="currentColor" dy="0em" transform="translate(369.792 48)">100,000</text></g><g class="tick" opacity="1"><path stroke="currentColor" d="M476.438 48v-6"/><text y="-9" fill="currentColor" dy="0em" transform="translate(476.438 48)">150,000</text></g><g class="tick" opacity="1"><path stroke="currentColor" d="M583.084 48v-6"/><text y="-9" fill="currentColor" dy="0em" transform="translate(583.084 48)">200,000</text></g><g class="tick" opacity="1"><path stroke="currentColor" d="M689.73 48v-6"/><text y="-9" fill="currentColor" dy="0em" transform="translate(689.73 48)">250,000</text></g><g class="tick" opacity="1"><path stroke="currentColor" d="M796.376 48v-6"/><text y="-9" fill="currentColor" dy="0em" transform="translate(796.376 48)">300,000</text></g></g></svg>