<svg xmlns="http://www.w3.org/2000/svg" width="840" height="336" font-family="system-ui,-apple-system,&quot;Segoe UI&quot;,Roboto,&quot;Helvetica Neue&quot;,&quot;Noto Sans&quot;,&quot;Liberation Sans&quot;,Arial,sans-serif" font-size="16"><path fill="#4e79a7" d="M92 52h431v32H92z"/><path fill="#f28e2c" d="M16 88h579v32H16z"/><path fill="#e15759" d="M61 124h552v32H61z"/><path fill="#76b7b2" d="M102 160h517v32H102z"/><path fill="#59a14f" d="M50 196h577v32H50z"/><path fill="#af7aa1" d="M300 232h516v32H300z"/><path fill="#edc949" d="M257 268h567v32H257z"/><g fill="#fff" font-weight="500" text-anchor="middle"><text x="307.5" y="68" alignment-baseline="central">markdown-wasm</text><text x="305.5" y="104" alignment-baseline="central">remarkable</text><text x="337" y="140" alignment-baseline="central">markdown-it</text><text x="360.5" y="176" alignment-baseline="central">commonmark</text><text x="338.5" y="212" alignment-baseline="central">marked</text><text x="558" y="248" alignment-baseline="central">micromark</text><text x="540.5" y="284" alignment-baseline="central">showdown</text></g><g fill="#fff" font-weight="500"><text x="92" y="68" alignment-baseline="central" dx="5">1.7us</text><text x="16" y="104" alignment-baseline="central" dx="5">545ns</text><text x="61" y="140" alignment-baseline="central" dx="5">1.1us</text><text x="102" y="176" alignment-baseline="central" dx="5">2.0us</text><text x="50" y="212" alignment-baseline="central" dx="5">906ns</text><text x="300" y="248" alignment-baseline="central" dx="5">38.3us</text><text x="257" y="284" alignment-baseline="central" dx="5">20.1us</text></g><g fill="#fff" font-weight="500" text-anchor="end"><text x="523" y="68" alignment-baseline="central" dx="-5">1.1ms</text><text x="595" y="104" alignment-baseline="central" dx="-5">3.1ms</text><text x="613" y="140" alignment-baseline="central" dx="-5">4.1ms</text><text x="619" y="176" alignment-baseline="central" dx="-5">4.5ms</text><text x="627" y="212" alignment-baseline="central" dx="-5">5.0ms</text><text x="816" y="248" alignment-baseline="central" dx="-5">85.6ms</text><text x="824" y="284" alignment-baseline="central" dx="-5">96.7ms</text></g><g fill="none" font-size="12.8" opacity=".5" text-anchor="middle"><path stroke="currentColor" d="M22.5 48v-6m11 6v-6m9 6v-6m8 6v-6" class="tick" opacity="1"/><g class="tick" opacity="1"><path stroke="currentColor" d="M57.5 48v-6"/><text y="-9" fill="currentColor" dy="0em" transform="translate(57.5 48)">1000ns</text></g><path stroke="currentColor" d="M103.5 48v-6m27 6v-6m19 6v-6m15 6v-6m12 6v-6m11 6v-6m9 6v-6m7 6v-6" class="tick" opacity="1"/><g class="tick" opacity="1"><path stroke="currentColor" d="M210.5 48v-6"/><text y="-9" fill="currentColor" dy="0em" transform="translate(210.5 48)">10.0us</text></g><path stroke="currentColor" d="M257.5 48v-6m27 6v-6m19 6v-6m15 6v-6m12 6v-6m11 6v-6m9 6v-6m7 6v-6" class="tick" opacity="1"/><g class="tick" opacity="1"><path stroke="currentColor" d="M364.5 48v-6"/><text y="-9" fill="currentColor" dy="0em" transform="translate(364.5 48)">100.0us</text></g><path stroke="currentColor" d="M411.5 48v-6m27 6v-6m19 6v-6m15 6v-6m12 6v-6m11 6v-6m8 6v-6m8 6v-6" class="tick" opacity="1"/><g class="tick" opacity="1"><path stroke="currentColor" d="M518.5 48v-6"/><text y="-9" fill="currentColor" dy="0em" transform="translate(518.5 48)">1000.0us</text></g><path stroke="currentColor" d="M565.5 48v-6m27 6v-6m19 6v-6m15 6v-6m12 6v-6m10 6v-6m9 6v-6m8 6v-6" class="tick" opacity="1"/><g class="tick" opacity="1"><path stroke="currentColor" d="M672.5 48v-6"/><text y="-9" fill="currentColor" dy="0em" transform="translate(672.5 48)">10.0ms</text></g><path stroke="currentColor" d="M719.5 48v-6m27 6v-6m19 6v-6m15 6v-6m12 6v-6m10 6v-6m9 6v-6m8 6v-6" class="tick" opacity="1"/></g></svg>